<svg xmlns="http://www.w3.org/2000/svg" viewBox="0 0 32 32" fill="none">
  <rect width="32" height="32" rx="6" fill="url(#gradient)"/>
  
  <path d="M0 15 Q8 12 16 15 Q24 18 32 15 L32 20 Q24 23 16 20 Q8 17 0 20 Z" fill="#3742fa30"/>
  
  <rect x="2" y="2" width="6" height="4" rx="0.5" fill="#ffffff25"/>
  <rect x="10" y="2" width="4" height="6" rx="0.5" fill="#ffffff20"/>
  <rect x="16" y="2" width="7" height="4" rx="0.5" fill="#ffffff30"/>
  <rect x="25" y="2" width="5" height="5" rx="0.5" fill="#ffffff18"/>
  
  <rect x="2" y="8" width="4" height="5" rx="0.5" fill="#ffffff22"/>
  <rect x="8" y="10" width="6" height="3" rx="0.5" fill="#ffffff15"/>
  <rect x="16" y="8" width="5" height="5" rx="0.5" fill="#ffffff25"/>
  <rect x="23" y="9" width="7" height="4" rx="0.5" fill="#ffffff20"/>
  
  <rect x="2" y="22" width="8" height="6" rx="0.5" fill="#ffffff18"/>
  <rect x="12" y="24" width="6" height="6" rx="0.5" fill="#ffffff25"/>
  <rect x="20" y="22" width="5" height="4" rx="0.5" fill="#ffffff20"/>
  <rect x="27" y="23" width="3" height="7" rx="0.5" fill="#ffffff22"/>
  
  <rect x="0" y="7" width="32" height="1" fill="#ffffff35"/>
  <rect x="0" y="21" width="32" height="1" fill="#ffffff35"/>
  <rect x="9" y="0" width="1" height="15" fill="#ffffff35"/>
  <rect x="15" y="0" width="1" height="15" fill="#ffffff35"/>
  <rect x="22" y="0" width="1" height="15" fill="#ffffff35"/>
  <rect x="11" y="20" width="1" height="12" fill="#ffffff35"/>
  <rect x="19" y="20" width="1" height="12" fill="#ffffff35"/>
  <rect x="26" y="20" width="1" height="12" fill="#ffffff35"/>
  
  <rect x="14" y="14" width="4" height="2" rx="1" fill="#ffffff50"/>
  
  <path d="M6 4 C7.2 4 8 4.8 8 6 C8 7.8 6 10 6 10 C6 10 4 7.8 4 6 C4 4.8 4.8 4 6 4Z" fill="#ff4757"/>
  <circle cx="6" cy="6" r="0.8" fill="white"/>
  
  <path d="M19 11 C20.2 11 21 11.8 21 13 C21 14.8 19 17 19 17 C19 17 17 14.8 17 13 C17 11.8 17.8 11 19 11Z" fill="#ff4757"/>
  <circle cx="19" cy="13" r="0.8" fill="white"/>
  
  <path d="M14 26 C15.2 26 16 26.8 16 28 C16 29.8 14 32 14 32 C14 32 12 29.8 12 28 C12 26.8 12.8 26 14 26Z" fill="#ffa502"/>
  <circle cx="14" cy="28" r="0.8" fill="white"/>

  <defs>
    <linearGradient id="gradient" x1="0%" y1="0%" x2="100%" y2="100%">
      <stop offset="0%" style="stop-color:#667eea"/>
      <stop offset="100%" style="stop-color:#764ba2"/>
    </linearGradient>
  </defs>
</svg>